<?xml version="1.0" standalone="no"?>
<!DOCTYPE svg PUBLIC "-//W3C//DTD SVG 20010904//EN" "http://www.w3.org/TR/2001/REC-SVG-20010904/DTD/svg10.dtd">
<svg version="1.0" xmlns="http://www.w3.org/2000/svg" width="750.000000pt" height="750.000000pt" viewBox="0 0 750.000000 750.000000" preserveAspectRatio="xMidYMid meet">
  <g transform="translate(0.000000,750.000000) scale(0.100000,-0.100000)" fill="#000000" stroke="none">
    <path d="M983 6179 c-8 -8 -8 -17 -2 -28 5 -9 14 -29 19 -44 6 -16 19 -31 30 -34 11 -3 20 -12 20 -20 0 -8 4 -12 9 -8 5 3 17 -2 25 -11 9 -8 16 -12 16 -7 0 4 4 3 8 -2 4 -6 20 -17 37 -25 16 -8 41 -27 56 -42 14 -16 31 -28 38 -28 6 0 11 -7 11 -17 0 -9 3 -14 6 -10 4 3 23 -11 44 -33 21 -22 40 -36 44 -33 3 4 6 1 6 -5 0 -7 0 -14 0 -17 0 -3 8 -14 18 -24 31 -35 43 -51 37 -51 -3 0 15 -21 40 -46 25 -26 45 -53 45 -60 0 -8 5 -14 10 -14 6 0 10 -7 10 -15 0 -8 4 -15 8 -15 5 0 14 -12 20 -26 7 -14 17 -22 23 -19 6 4 9 0 7 -11 -2 -11 2 -18 10 -17 6 2 12 -3 12 -11 0 -8 7 -22 16 -30 8 -9 12 -16 7 -16 -4 0 -3 -4 2 -8 6 -4 23 -28 38 -54 15 -26 34 -54 43 -62 8 -9 13 -16 10 -16 -5 0 23 -36 51 -65 7 -7 9 -15 6 -19 -4 -3 -1 -6 5 -6 7 0 11 -3 10 -7 -1 -5 3 -18 10 -30 7 -13 9 -23 5 -23 -4 0 3 -7 15 -16 12 -8 22 -22 22 -30 0 -8 5 -12 10 -9 6 3 10 1 10 -5 0 -6 7 -18 15 -27 8 -8 12 -19 9 -25 -5 -7 -2 -8 5 -4 8 5 14 0 18 -13 3 -12 10 -21 15 -21 5 0 6 -4 3 -10 -3 -5 -1 -10 4 -10 6 0 11 -7 11 -15 0 -8 5 -15 10 -15 6 0 10 -5 10 -11 0 -5 -6 -7 -12 -4 -7 4 -4 -1 6 -9 11 -9 24 -16 29 -16 4 0 6 -4 3 -8 -3 -5 10 -26 29 -47 19 -20 32 -42 28 -48 -3 -6 -1 -7 6 -3 7 5 13 -3 17 -23 4 -17 11 -31 17 -31 6 0 8 -3 4 -6 -7 -8 17 -34 32 -34 5 0 13 -9 16 -20 3 -11 10 -20 14 -20 4 0 8 -10 8 -22 1 -13 7 -24 13 -26 5 -2 10 -10 10 -18 0 -8 14 -28 30 -44 17 -17 28 -35 25 -40 -4 -6 -1 -9 7 -8 7 2 12 -3 10 -9 -1 -7 5 -13 15 -13 9 0 14 -3 11 -6 -4 -3 5 -22 18 -41 13 -20 24 -42 24 -49 0 -8 4 -14 9 -14 5 0 12 -11 15 -25 4 -14 12 -24 19 -22 6 1 11 -4 9 -11 -1 -7 5 -15 13 -18 8 -4 15 -12 15 -20 0 -8 5 -14 12 -14 6 0 9 -3 5 -6 -3 -4 -1 -12 6 -20 28 -32 37 -44 32 -44 -3 0 22 -36 55 -81 33 -44 57 -86 53 -91 -3 -7 -1 -8 5 -4 7 4 17 -3 24 -18 6 -14 15 -26 20 -26 5 0 6 -4 3 -10 -3 -5 -1 -10 6 -10 7 0 9 -3 6 -6 -4 -4 1 -14 11 -23 9 -9 24 -29 32 -46 8 -16 23 -39 33 -49 9 -11 17 -26 17 -33 0 -7 12 -27 28 -44 15 -17 26 -33 24 -36 -2 -2 8 -15 22 -28 14 -13 26 -29 26 -35 0 -17 36 -60 44 -53 3 3 6 -1 6 -10 0 -9 10 -25 22 -37 12 -11 18 -20 12 -20 -5 0 -1 -5 9 -11 9 -6 15 -14 12 -19 -3 -5 -1 -11 5 -15 5 -3 10 -15 10 -26 0 -10 6 -19 13 -19 8 0 7 -4 -3 -10 -13 -8 -12 -10 3 -10 9 0 23 -12 30 -27 6 -15 27 -43 45 -61 17 -19 32 -40 32 -48 0 -8 5 -14 11 -14 6 0 9 -7 5 -15 -3 -8 -1 -15 5 -15 6 0 8 -4 5 -8 -3 -5 13 -27 34 -50 22 -23 40 -44 40 -47 0 -3 9 -15 20 -27 11 -12 20 -28 20 -35 0 -7 9 -27 19 -45 11 -17 18 -35 15 -40 -3 -4 2 -8 10 -8 9 0 16 -7 16 -16 0 -8 4 -12 10 -9 5 3 10 -1 10 -11 0 -9 10 -25 22 -35 11 -11 17 -19 13 -19 -4 0 4 -11 19 -25 15 -14 24 -25 20 -25 -3 0 -1 -6 5 -13 6 -8 7 -17 3 -21 -4 -4 -2 -6 3 -4 6 2 11 -1 12 -5 1 -4 9 -15 18 -23 8 -9 13 -19 11 -23 -3 -4 4 -13 14 -21 10 -8 17 -17 14 -22 -3 -4 0 -8 6 -8 6 0 8 -4 5 -10 -3 -5 -1 -10 4 -10 6 0 11 -7 11 -15 0 -8 4 -15 9 -15 5 0 8 -8 7 -17 0 -10 8 -19 19 -21 17 -4 18 -2 6 12 -11 13 -11 17 1 21 10 4 14 24 13 70 0 36 2 65 5 65 3 0 5 27 4 60 -1 39 2 58 9 53 6 -4 7 -1 1 8 -12 20 -12 229 1 229 6 0 6 3 -1 8 -6 4 -10 19 -10 35 1 15 -1 27 -5 27 -3 0 -6 18 -5 40 1 22 -2 40 -7 40 -5 0 -7 9 -4 20 3 11 0 23 -5 27 -7 4 -8 1 -3 -7 5 -9 4 -11 -3 -6 -9 5 -9 13 -2 27 6 10 7 19 2 19 -8 0 -26 55 -24 72 1 3 -5 12 -13 18 -8 7 -15 21 -15 31 0 11 -4 19 -10 19 -5 0 -10 9 -10 20 0 11 -5 20 -11 20 -5 0 -8 4 -5 9 3 5 -1 14 -9 21 -8 7 -15 19 -15 28 0 8 -3 12 -7 9 -7 -7 -33 38 -33 58 0 7 -7 15 -15 19 -8 3 -15 12 -15 20 0 7 -7 17 -16 20 -9 3 -14 12 -12 18 3 7 -1 19 -9 26 -7 8 -11 18 -8 23 4 5 2 9 -4 9 -5 0 -8 9 -6 20 2 11 0 22 -4 24 -4 3 -8 24 -10 48 -1 23 -7 45 -13 49 -7 4 -6 9 2 14 8 5 7 12 -6 26 -11 12 -13 19 -5 19 9 0 9 5 -1 23 -15 28 -16 48 -3 66 8 12 7 13 -5 6 -13 -8 -13 -7 -1 8 7 9 9 17 4 17 -5 0 -9 9 -9 20 0 11 4 20 8 20 5 0 4 9 -2 20 -8 15 -8 20 1 20 9 0 9 3 0 14 -9 10 -9 16 -1 21 6 4 9 13 6 21 -3 8 0 14 7 14 8 0 6 4 -3 10 -8 5 -10 10 -5 10 6 0 12 12 13 28 1 15 7 29 13 30 6 3 6 9 -2 18 -8 9 -8 14 -1 14 6 0 9 9 7 20 -2 11 1 22 6 25 5 4 7 11 4 16 -4 5 -1 9 4 9 6 0 11 5 11 11 0 7 9 20 20 29 19 16 19 19 5 33 -8 9 -15 20 -15 26 0 6 -4 11 -8 11 -9 0 -36 59 -35 78 1 6 -3 12 -8 12 -5 0 -9 7 -9 15 0 8 -3 15 -8 15 -4 0 -16 16 -26 35 -10 19 -23 32 -28 29 -5 -3 -8 -2 -7 3 3 19 -2 31 -26 59 -14 16 -25 35 -25 42 0 6 -5 12 -11 12 -5 0 -7 5 -4 10 3 6 -1 10 -10 10 -9 0 -13 5 -10 10 3 6 1 10 -5 10 -6 0 -8 5 -5 10 3 6 1 10 -4 10 -6 0 -11 7 -11 16 0 8 -4 12 -10 9 -5 -3 -10 1 -10 9 0 9 -5 16 -11 16 -5 0 -8 4 -5 9 3 5 -1 14 -9 21 -8 7 -15 19 -15 26 0 8 -5 14 -11 14 -6 0 -9 7 -5 15 3 8 1 15 -4 15 -6 0 -10 7 -10 15 0 8 -8 15 -17 15 -15 0 -16 2 -3 10 8 5 10 10 4 10 -15 0 -54 35 -54 49 0 6 -5 11 -11 11 -5 0 -7 5 -4 10 3 6 1 10 -5 10 -6 0 -8 5 -5 10 3 6 2 10 -4 10 -5 0 -12 8 -16 19 -3 10 -17 31 -30 47 -14 16 -25 34 -25 41 0 6 -9 14 -19 18 -12 4 -18 12 -14 21 3 7 -1 14 -8 14 -7 0 -10 3 -6 6 8 8 -51 94 -64 94 -6 0 -8 4 -4 9 3 5 -1 16 -10 24 -8 8 -16 21 -17 28 -2 7 -13 24 -25 38 -12 14 -20 28 -17 33 3 4 0 8 -6 8 -6 0 -8 5 -5 10 3 6 0 10 -8 10 -17 0 -49 59 -40 74 3 5 1 6 -4 3 -10 -7 -28 20 -25 36 1 4 -3 7 -9 7 -5 0 -7 5 -4 10 3 6 1 10 -5 10 -6 0 -9 4 -6 9 3 5 -1 11 -9 15 -8 3 -15 15 -15 26 0 11 -4 20 -9 20 -5 0 -12 14 -16 30 -4 17 -11 30 -16 30 -6 0 -8 4 -5 9 3 5 -1 12 -10 15 -8 3 -12 10 -9 16 3 5 1 10 -4 10 -22 0 -10 29 23 58 19 17 32 33 28 37 -4 4 -1 6 7 3 8 -2 25 6 39 19 14 13 31 23 39 23 8 0 12 4 9 9 -3 5 1 11 9 15 8 3 15 12 15 21 0 13 -4 14 -20 5 -11 -6 -20 -7 -20 -3 0 4 -11 8 -25 8 -14 0 -25 -2 -25 -5 0 -3 -11 -5 -25 -5 -14 0 -25 4 -25 9 0 5 -7 3 -15 -4 -8 -7 -15 -8 -15 -3 0 5 -9 9 -20 9 -11 0 -20 -3 -20 -6 0 -9 -32 -6 -48 4 -7 4 -12 2 -12 -4 0 -6 -5 -8 -12 -4 -15 10 -48 13 -48 5 0 -3 -11 -6 -25 -6 -14 0 -25 5 -25 10 0 6 -5 3 -10 -5 -5 -8 -10 -10 -10 -5 0 6 -11 10 -25 10 -14 0 -25 -2 -25 -5 0 -4 -61 -4 -67 0 -4 3 -52 3 -55 0 -10 -6 -38 -7 -38 0 0 8 -56 4 -72 -6 -6 -4 -8 -2 -5 3 5 7 -4 8 -28 3 -19 -4 -37 -5 -40 -2 -7 7 -55 9 -55 2 0 -3 -9 -6 -20 -6 -11 0 -20 3 -20 7 0 8 -45 4 -59 -6 -6 -3 -11 -2 -11 4 0 6 -11 6 -30 1 -16 -5 -30 -5 -30 -1 0 4 -18 7 -40 6 -22 0 -40 -3 -40 -6 0 -3 -7 -6 -15 -6 -8 0 -15 3 -15 7 0 4 -7 7 -15 7 -8 0 -15 -5 -15 -11 0 -6 -4 -6 -12 2 -8 8 -17 8 -31 1 -15 -9 -18 -8 -11 3 6 11 5 11 -9 -1 -12 -9 -17 -10 -17 -2 0 8 -5 9 -19 1 -13 -7 -22 -7 -26 0 -4 7 -13 7 -26 0 -14 -8 -19 -7 -19 1 0 8 -4 9 -13 0 -8 -6 -17 -8 -21 -4 -9 9 -46 11 -46 3 0 -9 -32 -6 -48 4 -7 4 -12 2 -12 -6 0 -8 -3 -9 -8 -3 -7 11 -52 16 -52 6 0 -3 -13 -6 -29 -6 -16 0 -27 3 -24 8 7 11 -12 8 -24 -4z" />
    <path d="M5306 6173 c-4 -10 -1 -20 9 -25 8 -5 15 -15 15 -22 0 -8 14 -19 30 -26 17 -7 30 -16 30 -21 0 -4 9 -11 20 -14 11 -4 18 -10 15 -15 -3 -5 2 -15 11 -24 8 -9 12 -20 9 -26 -3 -5 -1 -10 5 -10 7 0 10 -6 7 -13 -3 -8 -2 -19 3 -26 4 -7 -1 -30 -11 -51 -11 -22 -19 -45 -19 -52 0 -8 -9 -20 -20 -28 -11 -8 -20 -23 -20 -33 0 -10 -4 -16 -9 -13 -5 3 -12 -1 -15 -10 -3 -8 -11 -12 -17 -8 -7 4 -9 3 -5 -4 3 -6 -1 -18 -10 -26 -8 -9 -13 -16 -9 -16 4 0 -1 -7 -9 -16 -9 -8 -14 -20 -11 -25 4 -5 -1 -9 -10 -9 -9 0 -14 -3 -12 -7 2 -5 -6 -18 -19 -31 -13 -12 -24 -19 -25 -15 0 7 -19 -31 -24 -47 -3 -14 -36 -70 -41 -70 -3 0 -2 5 2 12 4 7 3 8 -4 4 -7 -4 -12 -11 -12 -17 0 -12 -37 -48 -44 -43 -3 2 -4 1 -1 -3 3 -3 -2 -15 -12 -25 -9 -10 -14 -21 -10 -24 3 -3 -5 -16 -19 -29 -13 -12 -24 -25 -24 -29 0 -3 -8 -15 -17 -27 -44 -51 -61 -67 -69 -61 -4 4 -4 2 -1 -5 4 -6 -7 -25 -24 -42 -17 -17 -26 -31 -19 -31 6 0 2 -10 -9 -22 -12 -12 -23 -30 -27 -40 -3 -10 -10 -18 -16 -18 -6 0 -9 -2 -6 -5 3 -3 -9 -20 -26 -38 -44 -46 -65 -75 -60 -80 3 -2 -7 -12 -21 -21 -14 -9 -23 -21 -20 -26 4 -6 -1 -10 -10 -10 -9 0 -13 -5 -10 -10 3 -6 -1 -13 -9 -16 -9 -3 -13 -10 -10 -15 3 -5 0 -9 -6 -9 -6 0 -8 -5 -4 -12 5 -8 2 -9 -10 -5 -11 4 -15 3 -11 -4 4 -5 -3 -18 -14 -28 -12 -10 -21 -24 -21 -30 0 -7 -4 -9 -10 -6 -5 3 -10 -1 -10 -9 0 -9 -9 -25 -19 -35 -11 -11 -17 -22 -14 -24 2 -3 -5 -8 -16 -12 -12 -3 -19 -10 -16 -15 3 -4 -2 -10 -10 -14 -8 -3 -15 -13 -15 -21 0 -9 -4 -14 -9 -11 -5 4 -7 -3 -4 -14 3 -11 0 -20 -6 -20 -5 0 -8 -7 -5 -15 4 -8 1 -15 -6 -15 -6 0 -9 -4 -6 -8 2 -4 1 -14 -4 -22 -5 -8 -2 -22 7 -36 8 -13 14 -26 13 -29 -3 -10 12 -70 20 -80 7 -10 23 -77 25 -103 0 -7 6 -17 14 -21 11 -7 11 -9 0 -14 -11 -4 -11 -6 -1 -6 7 -1 10 -5 7 -11 -3 -5 0 -10 7 -10 9 0 9 -3 -2 -10 -9 -6 -10 -10 -3 -10 6 0 15 -15 19 -32 4 -18 9 -36 10 -40 1 -5 3 -9 4 -10 3 -4 10 -55 13 -90 1 -16 4 -28 7 -28 3 0 7 -12 8 -26 1 -14 5 -31 9 -37 11 -19 11 -47 -1 -47 -8 0 -8 -2 0 -8 16 -11 24 -41 14 -47 -7 -4 -6 -13 0 -26 6 -10 9 -19 6 -19 -3 0 0 -15 5 -32 13 -43 12 -123 -2 -150 -8 -14 -8 -18 0 -14 15 10 14 -17 -1 -33 -11 -11 -8 -11 12 0 14 7 28 12 32 11 4 -1 5 4 2 12 -5 14 20 46 37 46 5 0 8 3 7 8 -3 14 14 42 23 36 5 -3 6 2 3 10 -3 9 -1 16 6 16 6 0 8 4 5 10 -3 5 15 30 39 56 25 26 44 50 41 54 -2 4 5 17 16 28 11 12 17 22 14 22 -2 0 5 12 18 26 12 14 22 29 22 33 0 3 12 20 27 36 15 16 25 32 22 37 -3 4 0 8 6 8 6 0 8 5 5 10 -3 6 -1 10 4 10 19 0 71 67 87 113 3 9 10 17 15 17 5 0 9 5 9 11 0 7 15 26 33 43 17 17 38 43 46 59 8 15 18 27 23 27 4 0 8 6 8 14 0 8 11 23 25 34 14 11 25 25 25 31 0 5 9 15 20 21 11 6 18 15 15 21 -4 5 -1 9 5 9 6 0 9 4 5 9 -3 6 3 18 14 28 10 10 22 28 26 41 4 13 9 21 12 18 7 -7 32 17 26 27 -2 4 1 7 6 7 6 0 11 7 11 15 0 8 4 15 9 15 5 0 14 14 21 30 7 17 17 30 22 30 5 0 7 4 3 9 -3 6 1 13 8 18 7 4 23 23 36 41 12 18 27 29 33 26 6 -4 9 -3 6 2 -7 10 17 35 26 28 3 -2 2 2 -4 8 -7 9 -4 16 12 25 13 7 17 12 9 13 -9 0 -6 6 7 18 12 9 22 23 24 31 2 8 17 28 33 45 17 17 29 34 28 38 -2 4 1 8 6 8 5 0 26 27 46 60 20 33 41 60 46 60 5 0 11 11 15 24 4 17 11 23 22 19 9 -4 13 -2 9 4 -4 6 5 25 19 42 14 17 23 31 19 31 -3 0 1 7 9 16 9 8 14 20 11 25 -4 5 1 9 10 9 9 0 13 5 10 10 -3 6 1 10 10 10 9 0 14 4 10 9 -3 6 3 14 12 20 10 6 15 11 10 11 -4 0 7 16 25 36 18 20 32 40 31 45 -2 5 2 9 8 9 5 0 7 5 4 10 -3 6 -1 10 6 10 7 0 9 3 6 6 -4 4 18 31 47 60 30 29 52 55 49 58 -3 3 2 8 11 12 9 3 13 10 10 15 -3 5 5 20 18 33 39 42 49 56 41 56 -4 1 3 7 17 15 14 8 21 14 15 15 -5 0 7 16 28 35 20 18 37 38 37 44 0 5 9 13 21 16 11 4 27 21 34 38 7 18 16 31 19 30 14 -7 27 -2 21 7 -3 6 2 13 12 17 10 4 27 16 38 28 12 12 27 19 34 17 8 -3 11 -1 8 4 -2 5 2 16 11 24 9 8 18 13 19 10 1 -3 11 3 23 12 11 10 20 14 20 10 0 -4 5 0 10 8 5 8 15 15 22 15 7 1 12 6 11 13 -2 7 3 12 10 12 7 0 19 9 27 19 7 11 17 18 21 16 4 -3 9 1 12 9 3 8 21 22 39 30 18 9 39 25 46 36 11 17 10 20 -8 21 -28 2 -33 3 -46 11 -6 4 -14 4 -18 1 -12 -12 -36 -12 -36 0 0 8 -3 7 -9 -2 -6 -9 -11 -10 -15 -2 -4 6 -13 8 -19 4 -20 -12 -37 -12 -37 0 0 8 -3 7 -9 -2 -6 -9 -10 -10 -16 -2 -5 9 -10 9 -20 1 -9 -8 -15 -8 -20 0 -3 6 -10 8 -15 5 -16 -10 -70 -12 -70 -3 0 5 -9 4 -20 -2 -15 -8 -20 -8 -20 2 0 8 -3 9 -8 3 -8 -12 -32 -13 -49 -2 -7 5 -13 4 -13 0 0 -10 -41 -10 -57 0 -7 4 -14 3 -17 -1 -6 -10 -42 -9 -52 1 -4 3 -15 2 -25 -3 -12 -7 -19 -6 -22 3 -4 7 -6 8 -6 1 -1 -11 -53 -10 -71 1 -5 3 -12 1 -15 -5 -5 -8 -11 -7 -21 1 -8 6 -14 7 -14 2 0 -10 -56 -11 -66 0 -4 3 -15 2 -25 -4 -14 -7 -19 -6 -19 3 0 8 -3 9 -8 3 -9 -13 -82 -15 -82 -2 0 5 -8 3 -17 -4 -15 -12 -16 -12 -8 1 8 13 7 13 -8 1 -13 -10 -20 -11 -30 -2 -10 8 -17 7 -25 -1 -9 -9 -12 -9 -12 0 0 8 -7 9 -25 2 -18 -7 -25 -6 -25 3 0 7 -3 8 -8 2 -8 -12 -32 -13 -49 -2 -7 5 -13 5 -13 0 0 -4 -23 -8 -50 -9 -29 0 -50 4 -50 10 0 6 -4 5 -9 -3 -6 -9 -11 -10 -15 -2 -5 8 -13 8 -27 1 -14 -8 -19 -7 -19 2 0 8 -3 9 -8 3 -8 -11 -72 -12 -89 -2 -6 4 -14 -1 -17 -10z" />
    <path d="M3767 5607 c-3 -9 -3 -17 2 -17 4 0 6 -13 3 -30 -5 -32 -11 -37 -29 -19 -9 9 -12 7 -10 -10 1 -11 4 -21 7 -21 3 0 7 -12 8 -27 1 -16 7 -29 12 -31 6 -2 10 -12 10 -23 0 -11 9 -29 20 -41 11 -12 20 -30 20 -40 0 -10 5 -18 10 -18 6 0 10 -9 10 -20 0 -11 5 -20 10 -20 6 0 10 -8 10 -18 0 -10 7 -27 15 -38 8 -12 12 -24 8 -27 -3 -4 1 -9 10 -13 9 -3 13 -12 10 -21 -4 -11 -2 -14 5 -9 8 5 12 -1 12 -18 0 -14 5 -28 11 -31 5 -4 8 -12 6 -18 -2 -6 4 -27 14 -46 9 -20 15 -44 14 -54 -2 -9 0 -15 5 -12 5 3 12 -7 16 -22 4 -15 12 -34 18 -42 9 -12 8 -13 -4 -6 -10 5 -9 1 3 -13 11 -11 16 -25 13 -31 -3 -5 -1 -11 4 -13 6 -2 12 -13 13 -26 0 -12 5 -22 9 -22 4 0 7 -3 6 -7 -1 -5 6 -25 15 -47 9 -21 17 -45 17 -52 0 -8 4 -14 8 -14 5 0 9 -6 10 -12 0 -7 4 -24 7 -38 4 -14 8 -35 9 -47 0 -11 4 -19 8 -17 7 5 24 -73 20 -88 -1 -5 3 -8 9 -8 6 0 9 -7 6 -15 -4 -8 -2 -17 4 -20 5 -4 7 -11 3 -16 -3 -5 0 -16 6 -24 7 -8 10 -21 7 -30 -4 -8 -2 -17 3 -20 5 -3 7 -11 4 -19 -3 -7 0 -24 5 -38 7 -18 6 -29 -2 -37 -7 -7 -7 -11 -1 -11 6 0 12 -17 12 -37 1 -21 3 -66 5 -101 1 -34 -2 -72 -7 -85 -12 -29 -14 -57 -5 -57 4 0 2 -11 -4 -24 -7 -13 -14 -23 -17 -21 -3 2 -6 -5 -7 -15 -2 -19 -53 -102 -53 -86 0 5 -11 -3 -24 -17 -13 -14 -26 -23 -29 -20 -3 3 -12 1 -19 -3 -20 -13 -39 -17 -80 -17 -21 0 -38 -4 -38 -10 0 -5 -6 -5 -13 2 -8 6 -17 8 -20 4 -4 -3 -7 -1 -7 5 0 7 -3 11 -7 10 -17 -3 -62 15 -57 23 3 5 -2 6 -11 3 -10 -4 -24 2 -36 15 -11 11 -24 21 -29 21 -13 0 -60 52 -60 67 0 7 -4 13 -10 13 -16 0 -51 44 -45 58 2 7 0 10 -5 7 -5 -3 -15 5 -21 19 -7 14 -16 23 -20 20 -5 -3 -6 2 -3 10 3 8 -3 23 -14 34 -11 11 -18 23 -15 25 2 3 -1 15 -7 28 -7 12 -14 36 -17 53 -2 17 -11 43 -18 58 -7 15 -10 30 -7 32 6 4 7 62 2 76 -1 3 -2 9 -1 14 7 38 6 76 -3 76 -6 0 -5 4 3 9 12 8 19 32 23 79 1 6 5 12 10 12 5 0 6 5 3 10 -3 6 -1 10 5 10 6 0 9 4 5 10 -6 10 -36 2 -46 -12 -3 -5 -15 -10 -26 -11 -13 0 -19 -6 -16 -14 3 -7 -1 -13 -8 -13 -20 -1 -59 -36 -59 -52 0 -7 -8 -25 -17 -38 -10 -14 -16 -35 -14 -49 2 -14 -1 -21 -8 -17 -6 4 -8 -2 -6 -14 2 -11 0 -20 -4 -20 -4 0 -7 -19 -8 -42 0 -24 -3 -57 -6 -75 -4 -17 -3 -34 2 -38 6 -3 10 -22 11 -43 1 -62 3 -72 12 -72 5 0 6 -5 3 -10 -4 -6 -1 -17 5 -25 10 -12 10 -15 -1 -15 -11 0 -11 -2 -1 -8 7 -5 14 -17 16 -28 2 -10 9 -39 16 -64 7 -25 13 -51 13 -57 0 -7 4 -13 9 -13 4 0 8 -5 8 -11 0 -5 -5 -7 -12 -3 -7 4 -8 3 -4 -4 4 -7 14 -12 23 -12 13 0 14 -2 2 -17 -8 -9 -9 -14 -3 -10 6 3 16 -9 23 -29 7 -18 19 -34 27 -34 8 0 12 -4 9 -10 -3 -5 -1 -10 4 -10 6 0 10 -3 10 -7 -3 -20 2 -34 11 -28 6 3 10 -1 10 -9 0 -9 4 -16 8 -16 9 0 11 -9 15 -55 1 -14 5 -25 10 -25 4 0 7 -7 7 -15 0 -8 5 -15 12 -15 6 0 9 -3 5 -6 -3 -4 0 -22 8 -41 18 -43 18 -46 3 -38 -7 4 -6 1 3 -7 9 -7 14 -19 12 -25 -3 -7 1 -13 7 -13 7 0 10 -8 7 -20 -3 -11 -1 -20 5 -20 5 0 6 -9 3 -20 -3 -11 -3 -20 2 -20 8 0 13 -23 16 -67 0 -7 4 -13 8 -13 4 0 8 -8 7 -17 0 -10 3 -67 6 -128 4 -60 8 -138 10 -172 1 -36 -1 -63 -7 -63 -6 0 -6 -5 0 -12 10 -13 9 -152 -2 -323 -7 -128 -9 -139 -20 -147 -6 -5 -5 -8 3 -8 10 0 10 -5 -2 -22 -11 -16 -13 -25 -4 -35 6 -7 6 -13 1 -13 -5 0 -10 -10 -11 -22 -1 -13 -4 -41 -7 -63 -3 -22 -6 -46 -7 -52 -1 -7 -5 -13 -9 -13 -5 0 -6 -7 -3 -15 4 -8 1 -15 -4 -15 -6 0 -9 -9 -7 -20 2 -11 0 -20 -6 -20 -5 0 -9 -9 -9 -20 0 -11 -5 -20 -11 -20 -6 0 -9 -7 -5 -15 3 -8 1 -15 -4 -15 -5 0 -19 -18 -31 -40 -14 -24 -28 -39 -36 -36 -7 3 -13 -1 -13 -9 0 -8 -10 -21 -22 -29 -12 -9 -19 -16 -15 -16 4 0 2 -6 -5 -14 -7 -8 -17 -11 -22 -8 -5 3 -6 0 -3 -5 9 -15 -40 -66 -55 -57 -7 5 -8 3 -3 -6 6 -10 4 -12 -8 -7 -9 3 -16 3 -14 -1 1 -4 -1 -8 -5 -10 -4 -2 -35 -18 -69 -37 -33 -19 -65 -33 -69 -30 -5 3 -10 0 -12 -5 -2 -6 -10 -12 -18 -14 -8 -2 -28 -8 -43 -14 -15 -7 -31 -11 -35 -11 -4 1 -9 0 -12 -1 -13 -5 -47 -12 -70 -14 -14 -1 -31 -6 -38 -10 -7 -4 -12 -2 -12 4 0 7 -6 5 -15 -4 -10 -9 -28 -14 -45 -12 -17 2 -30 0 -30 -5 0 -7 -15 -8 -122 -11 -21 -1 -38 -6 -38 -11 0 -6 -3 -7 -6 -4 -4 3 -16 2 -27 -4 -15 -8 -18 -8 -12 1 6 9 2 9 -15 0 -12 -6 -28 -9 -35 -6 -8 3 -17 2 -19 -3 -3 -4 -27 -8 -54 -8 -27 -1 -60 -4 -72 -8 -16 -5 -20 -4 -15 5 6 9 3 9 -15 0 -12 -6 -28 -9 -36 -6 -8 3 -14 2 -14 -2 0 -4 -17 -7 -37 -6 -21 1 -45 -2 -54 -7 -10 -5 -21 -3 -29 4 -10 9 -11 9 -6 0 4 -7 -1 -12 -11 -12 -66 -2 -151 -9 -159 -13 -5 -3 -33 -6 -63 -7 -30 -1 -58 -4 -63 -7 -4 -3 -8 1 -8 8 0 10 -3 9 -10 -2 -5 -8 -12 -11 -16 -7 -4 4 -13 2 -21 -4 -7 -6 -13 -7 -13 -2 0 5 -9 9 -19 9 -11 0 -17 -4 -15 -8 8 -12 -11 -9 -24 4 -8 8 -12 9 -12 1 0 -6 -8 -10 -17 -8 -10 1 -28 -2 -40 -6 -15 -6 -23 -5 -23 2 0 8 -5 7 -15 -1 -8 -7 -15 -9 -15 -4 0 4 -5 3 -12 -4 -7 -7 -17 -8 -29 -2 -10 6 -20 6 -23 1 -6 -9 -20 -11 -101 -14 -25 -1 -45 -4 -45 -8 0 -4 -19 -7 -42 -8 -24 -1 -55 -2 -70 -3 -15 0 -25 -4 -23 -9 3 -4 -8 -4 -25 1 -28 8 -34 6 -31 -12 0 -4 -10 -3 -24 2 -16 6 -27 6 -31 -1 -4 -8 -10 -7 -16 2 -8 12 -10 12 -15 0 -5 -11 -7 -11 -14 0 -5 8 -9 9 -9 4 0 -7 -15 -9 -35 -7 -19 2 -42 -1 -50 -8 -11 -9 -15 -9 -15 -1 0 9 -5 9 -21 0 -16 -8 -20 -8 -14 1 6 9 2 9 -14 1 -11 -7 -21 -8 -21 -3 0 9 -58 8 -67 -2 -3 -3 -13 -1 -23 4 -10 5 -20 6 -24 3 -11 -11 -36 -12 -36 -2 0 6 -6 7 -12 2 -22 -13 -69 -13 -61 0 4 7 -1 5 -12 -3 -19 -16 -21 -15 -42 2 -8 6 -13 6 -13 1 0 -12 -60 -11 -79 1 -10 6 -12 5 -7 -2 4 -7 0 -12 -11 -13 -10 0 -45 -1 -78 -2 -52 -2 -60 -5 -62 -22 -2 -17 -1 -17 3 -2 6 18 6 18 21 0 14 -17 14 -17 9 2 -6 20 -6 20 9 1 9 -12 15 -15 15 -7 0 10 6 9 25 -3 14 -9 25 -13 25 -8 0 9 53 7 69 -3 6 -3 11 -1 11 5 0 7 6 8 18 2 9 -5 23 -7 30 -5 7 3 18 0 25 -5 7 -7 18 -7 27 -2 7 4 24 4 36 0 14 -6 26 -5 29 1 4 5 11 6 17 2 14 -8 87 -15 181 -16 37 -1 67 -5 67 -8 0 -9 123 -5 139 5 10 6 12 5 7 -2 -8 -13 -5 -13 96 -16 32 -2 61 -5 64 -9 4 -3 15 -2 25 4 13 7 19 6 19 -1 0 -6 5 -8 12 -4 11 7 78 6 141 -1 16 -2 27 2 27 8 0 8 3 9 8 1 4 -5 27 -10 50 -10 24 1 46 -2 48 -6 3 -4 16 -3 30 2 33 13 37 12 28 -2 -5 -7 -3 -8 6 -3 19 12 80 14 73 2 -4 -6 -1 -7 7 -2 20 12 699 12 704 0 3 -7 5 -7 5 0 1 11 97 13 107 2 3 -3 16 -2 29 3 15 6 27 4 35 -3 7 -7 10 -7 7 -2 -3 6 10 10 33 10 21 0 36 -4 33 -9 -4 -5 0 -6 7 -1 20 12 300 12 300 0 0 -7 3 -7 8 0 9 13 172 14 165 1 -4 -5 0 -6 8 -1 17 11 439 13 439 2 0 -5 5 -5 12 -1 15 9 71 10 86 1 6 -4 14 -2 18 4 4 8 9 7 15 -2 5 -8 9 -9 9 -4 0 11 151 12 169 1 6 -4 11 -2 11 5 0 9 3 9 14 0 10 -9 16 -9 21 -1 5 8 11 8 21 -1 10 -8 14 -8 14 0 0 7 8 8 25 1 18 -7 25 -6 25 2 0 9 3 9 11 1 7 -7 21 -8 40 -3 19 6 29 5 29 -2 0 -6 6 -6 15 2 12 10 15 10 15 -1 0 -11 3 -11 11 1 7 10 12 11 15 3 3 -7 14 -9 32 -4 15 5 37 4 50 0 12 -5 22 -5 22 0 0 9 55 5 71 -4 5 -4 9 0 9 7 0 9 3 9 10 -2 5 -8 10 -10 10 -5 0 11 71 12 88 1 6 -3 13 0 16 6 4 10 7 10 12 1 3 -7 14 -9 32 -4 15 5 36 5 47 1 12 -4 23 -3 27 4 5 7 8 6 8 -4 0 -12 2 -12 8 -2 7 9 15 10 35 3 20 -8 27 -7 27 2 0 8 4 7 10 -3 5 -8 10 -10 10 -5 0 6 20 10 45 10 25 0 45 -4 45 -10 0 -5 5 -3 11 5 7 10 12 11 15 3 3 -7 14 -9 32 -4 15 5 36 5 47 1 12 -4 23 -3 27 4 5 7 8 6 8 -4 0 -12 2 -12 9 -1 6 10 13 10 28 3 14 -8 23 -8 30 -1 7 7 13 7 17 1 4 -7 17 -7 36 -2 19 5 30 5 30 -1 0 -6 5 -7 12 -3 16 10 1119 11 1125 1 2 -4 9 -4 15 -1 16 10 208 11 215 2 2 -5 10 -5 16 0 7 5 41 9 77 8 36 -1 81 1 101 4 19 4 45 3 57 -1 12 -5 22 -5 22 -1 0 5 29 7 65 7 43 -1 65 3 65 10 0 7 -15 12 -32 13 -18 0 -34 5 -36 11 -2 6 -12 7 -25 2 -27 -10 -49 -3 -40 12 5 8 2 8 -9 0 -8 -7 -18 -10 -21 -7 -3 3 -22 6 -41 6 -20 0 -39 4 -42 9 -3 5 -13 5 -24 -1 -14 -7 -22 -7 -31 3 -7 7 -23 12 -35 9 -12 -2 -32 1 -44 8 -15 8 -20 8 -16 1 8 -12 -6 -15 -18 -4 -3 4 -35 8 -69 9 -73 2 -89 5 -99 19 -5 7 -8 7 -8 0 0 -9 -30 -10 -85 -3 -11 2 -23 8 -27 13 -5 6 -8 5 -8 -3 0 -9 -5 -10 -19 -2 -11 5 -21 6 -23 1 -2 -5 -19 -4 -40 3 -20 7 -42 10 -49 5 -7 -4 -21 -2 -32 6 -10 7 -27 10 -39 7 -11 -3 -24 1 -29 9 -6 9 -9 10 -9 2 0 -8 -13 -10 -37 -7 -82 10 -160 17 -205 18 -27 0 -48 4 -48 8 0 3 -21 5 -47 4 -27 -1 -60 1 -75 5 -19 5 -28 4 -28 -4 0 -8 -3 -8 -11 0 -6 6 -17 9 -24 6 -8 -2 -22 0 -33 6 -11 6 -23 7 -27 3 -10 -10 -55 -10 -55 1 0 4 -6 5 -12 0 -18 -11 -42 -10 -50 2 -5 6 -8 5 -8 -4 0 -11 -3 -11 -15 -1 -12 10 -15 10 -15 -1 0 -12 -2 -12 -9 -1 -9 15 -20 15 -38 0 -9 -7 -13 -7 -13 1 0 8 -6 9 -18 2 -11 -6 -24 -6 -35 0 -12 7 -17 6 -17 -1 0 -6 -5 -8 -12 -3 -7 4 -62 9 -123 10 -211 6 -300 10 -329 18 -23 6 -27 5 -21 -5 6 -10 4 -11 -6 -4 -16 10 -44 16 -76 17 -13 1 -23 4 -23 7 0 3 -17 6 -37 7 -45 2 -64 6 -80 16 -6 4 -14 3 -18 -3 -4 -6 -11 -8 -16 -4 -5 3 -7 10 -3 15 3 5 2 9 -3 8 -4 -1 -10 0 -13 1 -3 1 -14 3 -25 5 -11 2 -27 6 -35 8 -8 2 -30 8 -48 12 -18 4 -35 12 -38 16 -3 5 -14 9 -25 9 -10 0 -19 5 -19 10 0 6 -6 10 -14 10 -7 0 -19 15 -27 33 -7 17 -17 35 -21 38 -5 3 -10 20 -11 37 -1 18 -5 32 -9 32 -5 0 -7 18 -6 40 1 22 6 40 11 40 5 0 4 7 -3 15 -6 8 -8 20 -4 27 7 11 11 40 13 96 1 13 5 21 9 18 4 -2 9 5 9 16 1 12 8 25 15 29 7 4 9 11 6 15 -4 3 -1 22 8 42 8 19 12 37 9 40 -3 3 2 16 10 29 9 13 13 23 9 23 -4 0 -1 7 6 15 7 8 10 15 7 15 -3 0 0 15 8 34 8 18 11 36 8 40 -4 3 -1 6 5 6 7 0 12 9 12 19 0 11 4 22 9 25 4 3 7 17 6 31 -2 14 0 25 4 25 4 0 8 7 9 15 1 8 3 22 4 30 1 8 4 15 8 15 4 0 7 6 8 13 0 6 7 39 16 72 8 33 13 62 10 64 -2 2 1 10 6 16 6 7 11 24 12 39 1 14 7 26 13 26 6 0 7 3 0 8 -14 10 -17 32 -5 32 6 0 8 11 6 24 -2 13 -2 27 2 30 10 11 11 36 1 36 -6 0 -7 6 -2 13 4 6 8 17 9 22 1 6 5 26 9 45 3 19 11 40 16 46 7 8 6 14 -1 19 -6 3 -7 12 -3 18 4 7 8 21 8 32 0 11 4 26 8 33 5 7 3 12 -3 12 -8 0 -9 7 -5 18 15 37 17 75 18 307 0 160 4 242 11 247 7 5 5 8 -6 8 -11 0 -15 6 -11 20 3 11 0 33 -5 49 -7 20 -7 33 -1 37 6 4 6 10 -1 19 -6 8 -7 16 -2 19 10 6 4 56 -7 56 -3 0 -5 20 -4 45 1 25 -2 45 -7 45 -5 0 -7 9 -5 20 2 11 0 22 -4 25 -5 2 -7 18 -5 35 2 16 0 30 -4 30 -4 0 -8 16 -9 36 -1 19 -8 43 -15 52 -11 13 -11 15 2 7 12 -6 13 -5 3 6 -7 7 -13 25 -13 39 0 15 -3 30 -7 34 -6 6 -10 24 -15 76 0 8 -4 17 -9 20 -4 3 -9 14 -11 25 -1 11 -9 25 -17 31 -11 8 -11 13 -2 18 9 6 9 11 0 22 -6 7 -9 21 -5 29 3 8 2 15 -3 15 -4 0 -8 6 -9 13 -3 34 -9 64 -16 75 -4 7 -9 30 -11 50 -1 20 -8 51 -14 67 -7 17 -13 38 -14 48 -1 9 -4 17 -7 17 -4 0 -7 6 -7 13 -1 6 -6 27 -11 45 -6 17 -8 32 -4 32 4 0 1 4 -6 8 -7 5 -14 22 -15 39 -1 17 -4 30 -7 28 -4 -2 -11 5 -18 16 -7 10 -8 19 -3 19 6 0 3 16 -5 35 -8 19 -12 35 -8 35 3 0 -2 7 -11 16 -9 9 -14 23 -11 30 3 8 2 14 -2 14 -5 0 -16 24 -27 53 -10 28 -22 57 -26 63 -5 6 -5 15 -1 19 4 5 2 5 -5 1 -10 -6 -26 21 -20 35 1 3 -5 13 -13 22 -31 34 -41 47 -34 47 4 0 -6 12 -22 28 -16 15 -30 30 -31 32 -5 18 -39 70 -45 70 -5 0 -8 6 -8 14 0 8 -7 17 -16 20 -8 3 -12 11 -8 17 4 8 3 9 -4 5 -7 -4 -12 -2 -12 4 0 6 -4 8 -10 5 -5 -3 -10 -3 -10 2 0 10 -71 59 -82 56 -4 -2 -5 4 -2 12 4 9 0 15 -9 15 -8 0 -17 5 -19 12 -3 7 -7 6 -11 -5z" />
    <path d="M3845 4540 c-3 -5 -12 -7 -20 -3 -8 3 -15 0 -15 -7 0 -6 -5 -8 -10 -5 -6 4 -17 1 -25 -5 -8 -6 -18 -9 -23 -6 -4 3 -20 -6 -34 -19 -14 -13 -28 -22 -30 -19 -7 7 -59 -127 -53 -137 4 -5 2 -9 -4 -9 -5 0 -7 -14 -5 -32 3 -18 6 -39 6 -45 1 -7 5 -13 10 -13 4 0 7 -3 7 -7 -1 -5 0 -11 1 -15 1 -5 3 -11 5 -15 7 -25 21 -50 34 -61 28 -22 105 -54 133 -56 15 0 28 -4 28 -9 0 -4 4 -6 9 -3 5 3 29 8 52 11 60 8 139 61 149 100 2 6 11 16 22 24 11 7 17 19 14 26 -2 7 0 17 6 23 31 31 -27 213 -72 227 -11 4 -20 10 -20 15 0 7 -21 15 -43 18 -4 0 -19 8 -33 16 -14 10 -24 12 -24 6 0 -7 -5 -8 -12 -3 -20 12 -46 14 -53 3z" />
    <path d="M463 1385 c0 -8 4 -12 9 -9 5 3 6 10 3 15 -9 13 -12 11 -12 -6z" />
  </g>
</svg>
